<?xml version="1.0" encoding="UTF-8" standalone="no"?><!DOCTYPE svg PUBLIC "-//W3C//DTD SVG 1.1//EN" "http://www.w3.org/Graphics/SVG/1.1/DTD/svg11.dtd"><svg width="100%" height="100%" viewBox="0 0 417 417" version="1.1" xmlns="http://www.w3.org/2000/svg" xmlns:xlink="http://www.w3.org/1999/xlink" xml:space="preserve" xmlns:serif="http://www.serif.com/" style="fill-rule:evenodd;clip-rule:evenodd;stroke-linecap:round;stroke-linejoin:round;stroke-miterlimit:1.5;"><rect id="Artboard1" x="0" y="0" width="416.667" height="416.667" style="fill:none;"/><g id="Artboard11" serif:id="Artboard1"><path d="M237.814,23.165c-19.531,-3.109 -39.431,-3.109 -58.961,0c-2.478,15.936 -4.932,31.875 -7.362,47.817c-11.979,3.213 -23.486,7.98 -34.228,14.178c-12.991,-9.555 -25.997,-19.09 -39.017,-28.606c-16.009,11.612 -30.08,25.683 -41.692,41.692c9.516,13.02 19.051,26.026 28.606,39.017c-6.198,10.742 -10.965,22.249 -14.178,34.228c-15.942,2.43 -31.881,4.884 -47.817,7.362c-3.109,19.53 -3.109,39.43 0,58.961c15.936,2.478 31.875,4.932 47.817,7.362c3.213,11.979 7.98,23.485 14.178,34.228c-9.555,12.991 -19.09,25.997 -28.606,39.017c11.612,16.009 25.683,30.08 41.692,41.692c13.02,-9.516 26.026,-19.051 39.017,-28.606c10.742,6.198 22.249,10.964 34.228,14.178c2.43,15.942 4.884,31.881 7.362,47.816c19.53,3.11 39.43,3.11 58.961,0c2.478,-15.935 4.932,-31.874 7.362,-47.816c11.979,-3.214 23.485,-7.98 34.228,-14.178c12.991,9.555 25.997,19.09 39.017,28.606c16.009,-11.612 30.08,-25.683 41.692,-41.692c-9.516,-13.02 -19.051,-26.026 -28.606,-39.017c6.198,-10.743 10.964,-22.249 14.178,-34.228c15.942,-2.43 31.881,-4.884 47.816,-7.362c3.11,-19.531 3.11,-39.431 0,-58.961c-15.935,-2.478 -31.874,-4.932 -47.816,-7.362c-3.214,-11.979 -7.98,-23.486 -14.178,-34.228c9.555,-12.991 19.09,-25.997 28.606,-39.017c-11.612,-16.009 -25.683,-30.08 -41.692,-41.692c-13.02,9.516 -26.026,19.051 -39.017,28.606c-10.743,-6.198 -22.249,-10.965 -34.228,-14.178c-2.43,-15.942 -4.884,-31.881 -7.362,-47.817Z" style="fill:#b4b4b4;stroke:#6e6e6e;stroke-width:31.25px;"/><path d="M201.496,102.324c-1.488,-5.553 -7.204,-8.854 -12.757,-7.366l-20.124,5.392c-5.553,1.488 -8.853,7.205 -7.365,12.758l24.264,90.556c1.488,5.553 7.204,8.853 12.758,7.365l20.123,-5.392c5.553,-1.488 8.854,-7.204 7.366,-12.757l-24.265,-90.556Z" style="fill:#005cff;"/><path d="M297.041,245.13c5.662,0.998 11.069,-2.788 12.068,-8.45l3.617,-20.517c0.999,-5.662 -2.787,-11.069 -8.449,-12.067l-82.068,-14.471c-5.661,-0.998 -11.069,2.788 -12.067,8.45l-3.618,20.517c-0.998,5.662 2.788,11.069 8.45,12.067l82.067,14.471Z" style="fill:#003799;"/><circle cx="208.333" cy="208.333" r="26.042" style="fill:#6e6e6e;"/></g></svg>